<?xml version="1.0" encoding="UTF-8"?>
<svg xmlns="http://www.w3.org/2000/svg" xmlns:xlink="http://www.w3.org/1999/xlink" width="4125" height="2175" viewBox="0 0 4125 2175">
<rect x="-412.5" y="-217.5" width="4950" height="2610" fill="rgb(100%, 100%, 100%)" fill-opacity="1"/>
<path fill-rule="evenodd" fill="rgb(91.014099%, 72.851562%, 0%)" fill-opacity="1" d="M 371.25 879.75 C 378.75 847.5 393 810.75 376.5 779.25 C 358.5 782.25 342.75 846 343.5 857.25 C 344.25 862.5 357.75 890.25 371.25 879.75 Z M 371.25 879.75 "/>
<path fill-rule="evenodd" fill="rgb(100%, 65.039062%, 41.967773%)" fill-opacity="1" d="M 432 1024.5 C 432 1024.5 342.75 1080.75 314.25 1113 C 314.25 1113 245.25 1139.25 246.75 1075.5 C 248.25 1011 328.5 962.25 319.5 937.5 C 310.5 912.75 300 903 334.5 862.5 C 334.5 862.5 335.25 829.5 331.5 824.25 C 331.5 824.25 351 798.75 360.75 860.25 C 360.75 860.25 425.25 874.5 366 943.5 C 306 1011.75 335.25 1000.5 335.25 1000.5 C 335.25 1000.5 357 986.25 374.25 975.75 C 392.25 966 447 962.25 447 962.25 C 447 962.25 445.5 996 432 1024.5 Z M 432 1024.5 "/>
<path fill-rule="evenodd" fill="rgb(100%, 65.039062%, 41.967773%)" fill-opacity="1" d="M 843 696.75 C 843 696.75 858.75 696 877.5 699.75 C 877.5 699.75 885.75 659.25 1094.25 627 C 1094.25 627 1120.5 624.75 1128 601.5 C 1135.5 578.25 1116.75 562.5 1159.5 543 C 1159.5 543 1162.5 532.5 1166.25 530.25 C 1170 528 1176 520.5 1176 520.5 C 1176 520.5 1193.25 495 1194 489.75 C 1194.75 485.25 1214.25 498 1201.5 514.5 C 1201.5 514.5 1230 510.75 1229.25 518.25 C 1228.5 525.75 1219.5 537 1195.5 541.5 C 1207.5 565.5 1165.5 657 1131.75 668.25 C 1074 687.75 978 734.25 978 734.25 C 978 734.25 912.75 757.5 886.5 758.25 C 860.25 759 811.5 789.75 811.5 789.75 L 786 760.5 C 786 760.5 807.75 708.75 843 696.75 Z M 843 696.75 "/>
<path fill-rule="evenodd" fill="rgb(0%, 0%, 0%)" fill-opacity="1" d="M 881.25 1138.5 C 886.5 1134 932.25 1356 860.25 1548 C 860.25 1548 792 1554 701.25 1539.75 L 693 1518.75 L 692.25 1533.75 C 692.25 1533.75 656.25 1525.5 642 1506.75 C 627.75 1488 576.75 1326.75 607.5 1265.25 C 638.25 1203 816 1116.75 881.25 1138.5 Z M 881.25 1138.5 "/>
<path fill-rule="evenodd" fill="rgb(91.014099%, 72.851562%, 0%)" fill-opacity="1" d="M 669.75 729.75 C 669.75 729.75 753.75 696 787.5 706.5 C 787.5 706.5 805.5 684 850.5 681 C 850.5 681 810 759 827.25 772.5 C 827.25 772.5 810.75 801.75 776.25 801.75 C 776.25 801.75 771 870.75 800.25 908.25 C 828.75 945.75 849 1077.75 849 1077.75 C 849 1077.75 888 1139.25 892.5 1138.5 C 897 1137.75 766.5 1287.75 607.5 1265.25 C 607.5 1265.25 605.25 1209.75 622.5 1183.5 C 622.5 1183.5 624 1155 584.25 1111.5 C 545.25 1068 502.5 1011 502.5 1011 C 502.5 1011 520.5 1011.75 479.25 999 C 479.25 999 450.75 1000.5 432 1024.5 C 432 1024.5 395.25 972 374.25 975.75 C 374.25 975.75 414.75 924.75 442.5 904.5 C 469.5 883.5 531.75 867.75 532.5 824.25 C 533.25 780.75 540 758.25 540 758.25 C 540 758.25 583.5 687.75 669.75 729.75 Z M 669.75 729.75 "/>
<path fill-rule="evenodd" fill="rgb(100%, 65.039062%, 41.967773%)" fill-opacity="1" d="M 579.75 585 C 579.75 585 603.75 613.5 606.75 627.75 L 639.75 627 L 635.25 644.25 L 657.75 660 C 657.75 660 641.25 688.5 656.25 693.75 C 660 694.5 661.5 694.5 663.75 698.25 C 669 710.25 669.75 729.75 669.75 729.75 C 669.75 729.75 653.25 745.5 627 745.5 C 627 745.5 566.25 771.75 547.5 789 L 541.5 779.25 C 541.5 779.25 552 737.25 576 726.75 C 536.25 702.75 516.75 688.5 516.75 688.5 C 516.75 688.5 495.75 603 555 587.25 L 558.75 581.25 C 558.75 581.25 566.25 579.75 579.75 585 Z M 579.75 585 "/>
<path fill-rule="evenodd" fill="rgb(0%, 0%, 0%)" fill-opacity="1" d="M 579.75 585 C 579.75 585 552 593.25 552 606.75 C 552 621 603 663 600.75 669.75 C 598.5 677.25 592.5 689.25 558.75 693.75 C 525.75 697.5 587.25 734.25 587.25 734.25 C 587.25 734.25 559.5 736.5 555.75 759.75 C 552 782.25 549.75 796.5 530.25 801 C 511.5 805.5 422.25 739.5 423.75 681.75 C 424.5 624 527.25 500.25 579.75 585 Z M 579.75 585 "/>
<path fill-rule="evenodd" fill="rgb(0%, 0%, 0%)" fill-opacity="1" d="M 489 363 C 465 355.5 429 402 409.5 467.25 C 390.75 528 392.25 582.75 412.5 595.5 L 365.25 791.25 L 380.25 794.25 L 426 598.5 C 449.25 594 479.25 551.25 496.5 494.25 C 516.75 429 513 370.5 489 363 Z M 489 363 "/>
<path fill-rule="evenodd" fill="rgb(100%, 65.039062%, 41.967773%)" fill-opacity="1" d="M 860.25 1548 C 860.25 1548 797.25 1686.75 768.75 1709.25 C 741 1731 462 1713.75 462 1713.75 C 462 1713.75 357.75 1719.75 348 1722 C 338.25 1724.25 337.5 1660.5 387 1653.75 L 394.5 1638.75 L 464.25 1633.5 C 464.25 1633.5 550.5 1631.25 565.5 1609.5 C 565.5 1609.5 549.75 1626 493.5 1626.75 C 437.25 1627.5 393.75 1624.5 393.75 1624.5 L 351.75 1599.75 C 351.75 1599.75 381.75 1565.25 402 1554 C 423 1542.75 544.5 1545.75 544.5 1545.75 C 544.5 1545.75 610.5 1509 660.75 1555.5 L 677.25 1507.5 C 677.25 1507.5 805.5 1484.25 860.25 1548 Z M 860.25 1548 "/>
<path fill-rule="evenodd" fill="rgb(0%, 0%, 0%)" fill-opacity="1" d="M 471.75 1626.75 C 426 1626.75 393.75 1624.5 393.75 1624.5 L 351.75 1599.75 C 351.75 1599.75 381.75 1565.25 402 1554 C 411.75 1548.75 440.25 1546.5 470.25 1545.75 Z M 471.75 1626.75 "/>
<path fill-rule="evenodd" fill="rgb(0%, 0%, 0%)" fill-opacity="1" d="M 474 1714.5 C 466.5 1713.75 462 1713.75 462 1713.75 C 462 1713.75 357.75 1719.75 348 1722 C 338.25 1724.25 337.5 1660.5 387 1653.75 L 394.5 1638.75 L 464.25 1633.5 C 464.25 1633.5 467.25 1633.5 471.75 1633.5 Z M 474 1714.5 "/>
<path fill-rule="evenodd" fill="rgb(76.171875%, 0%, 0%)" fill-opacity="1" d="M 366 1594.5 C 366 1594.5 373.5 1590.75 381 1584.75 L 390.75 1577.25 C 399.75 1568.25 407.25 1557.75 402.75 1548.75 C 393 1528.5 366 1450.5 312 1502.25 C 258 1554 275.25 1554.75 275.25 1554.75 C 275.25 1554.75 171 1607.25 192 1671.75 C 192 1671.75 191.25 1701 207 1701 C 207 1701 153 1756.5 198 1784.25 C 198 1784.25 222 1809 263.25 1750.5 C 263.25 1750.5 326.25 1727.25 345 1720.5 C 338.25 1711.5 342 1659.75 387 1653.75 L 394.5 1638.75 L 408.75 1637.25 C 410.25 1627.5 412.5 1614 412.5 1610.25 C 412.5 1605 366 1594.5 366 1594.5 Z M 366 1594.5 "/>
<path fill-rule="evenodd" fill="rgb(0%, 0%, 0%)" fill-opacity="1" d="M 2346.75 1563.75 C 2346.75 1563.75 2331.75 1567.5 2336.25 1629.75 C 2340.75 1692 2329.5 1704 2329.5 1704 C 2329.5 1704 2334 1756.5 2373.75 1746.75 C 2413.5 1737.75 2421 1715.25 2416.5 1698 C 2411.25 1680.75 2405.25 1677.75 2402.25 1659.75 C 2400 1641.75 2404.5 1600.5 2402.25 1590 C 2400.75 1579.5 2379 1584.75 2346.75 1563.75 Z M 2346.75 1563.75 "/>
<path fill-rule="evenodd" fill="rgb(100%, 65.039062%, 41.967773%)" fill-opacity="1" d="M 2775 857.25 C 2775 857.25 2790.75 887.25 2793 920.25 C 2794.5 953.25 2811.75 1044.75 2781.75 1110 C 2781.75 1110 2772 1131 2778 1155 C 2784 1178.25 2773.5 1195.5 2773.5 1195.5 C 2773.5 1195.5 2789.25 1211.25 2798.25 1196.25 C 2798.25 1196.25 2812.5 1214.25 2825.25 1194 C 2838 1174.5 2844.75 1178.25 2846.25 1152.75 C 2848.5 1126.5 2847 1139.25 2847.75 1117.5 C 2847.75 1095.75 2853 1057.5 2853 1057.5 C 2853 1057.5 2855.25 1001.25 2859 990.75 C 2862 980.25 2861.25 918.75 2861.25 918.75 C 2861.25 918.75 2879.25 846.75 2809.5 806.25 L 2786.25 819.75 C 2786.25 819.75 2767.5 829.5 2775 857.25 Z M 2775 857.25 "/>
<path fill-rule="evenodd" fill="rgb(0%, 0%, 0%)" fill-opacity="1" stroke-width="17.7166" stroke-linecap="butt" stroke-linejoin="miter" stroke="rgb(19.993591%, 17.259216%, 16.868591%)" stroke-opacity="1" stroke-miterlimit="4" d="M 21120 4590 C 21120 4590 20505 3757.5 20490 3592.5 C 20475 3435 20685 3217.5 21217.5 3397.5 C 21750 3585 21750 4260 21727.5 4470 C 21712.5 4680 21457.5 4687.5 21120 4590 Z M 21120 4590 " transform="matrix(0.1, 0, 0, -0.1, 0, 2175)"/>
<path fill-rule="evenodd" fill="rgb(0%, 19.993591%, 59.959412%)" fill-opacity="1" d="M 2481 612.75 C 2481 612.75 2366.25 652.5 2345.25 648.75 C 2345.25 648.75 2320.5 685.5 2314.5 689.25 C 2309.25 693 2319.75 745.5 2286 789.75 C 2286 789.75 2274 815.25 2269.5 814.5 L 2275.5 828 C 2275.5 828 2287.5 809.25 2319.75 819.75 C 2352.75 830.25 2358.75 837 2358.75 837 L 2389.5 805.5 C 2389.5 805.5 2345.25 848.25 2345.25 941.25 C 2345.25 1035 2310.75 1093.5 2310.75 1093.5 C 2310.75 1093.5 2301 1110.75 2276.25 1127.25 C 2276.25 1127.25 2460 1245.75 2620.5 1199.25 C 2620.5 1199.25 2640 1181.25 2640.75 1158.75 C 2641.5 1135.5 2639.25 1004.25 2651.25 969 C 2663.25 933.75 2686.5 805.5 2686.5 805.5 C 2686.5 805.5 2703.75 793.5 2712 810 C 2719.5 826.5 2733.75 855 2733.75 855 C 2733.75 855 2776.5 864.75 2790 851.25 C 2804.25 837.75 2821.5 809.25 2821.5 809.25 L 2777.25 746.25 L 2712.75 666.75 C 2712.75 666.75 2619 634.5 2595.75 613.5 C 2571.75 593.25 2523 587.25 2481 612.75 Z M 2481 612.75 "/>
<path fill-rule="evenodd" fill="rgb(0%, 19.993591%, 59.959412%)" fill-opacity="1" d="M 2184 1447.5 C 2184 1447.5 2121.75 1512 2124.75 1581 C 2127.75 1650 2119.5 1708.5 2110.5 1713.75 C 2110.5 1713.75 2142.75 1753.5 2175 1726.5 C 2175 1726.5 2173.5 1693.5 2191.5 1661.25 C 2208.75 1629 2244.75 1629 2254.5 1539 C 2263.5 1449.75 2222.25 1439.25 2184 1447.5 Z M 2184 1447.5 "/>
<path fill-rule="evenodd" fill="rgb(100%, 59.568787%, 32.93457%)" fill-opacity="1" d="M 2485.5 593.25 L 2480.25 616.5 C 2480.25 616.5 2479.5 675 2522.25 696 C 2564.25 717 2580.75 669 2580.75 669 C 2580.75 669 2550.75 580.5 2485.5 593.25 Z M 2485.5 593.25 "/>
<path fill-rule="evenodd" fill="rgb(100%, 65.039062%, 41.967773%)" fill-opacity="1" d="M 2218.5 1317 C 2218.5 1317 2196 1389.75 2205 1420.5 C 2205 1420.5 2186.25 1429.5 2184 1447.5 C 2181 1466.25 2179.5 1516.5 2222.25 1512.75 C 2265 1508.25 2269.5 1479 2269.5 1479 C 2269.5 1479 2302.5 1422.75 2323.5 1399.5 C 2343.75 1375.5 2289 1279.5 2218.5 1317 Z M 2218.5 1317 "/>
<path fill-rule="evenodd" fill="rgb(100%, 65.039062%, 41.967773%)" fill-opacity="1" d="M 2476.5 543 C 2476.5 543 2442 543 2483.25 584.25 C 2483.25 584.25 2494.5 627.75 2505.75 642 C 2517.75 657 2535 690.75 2568.75 678.75 C 2568.75 678.75 2589 673.5 2604 617.25 C 2619 561.75 2628.75 555 2630.25 539.25 C 2631.75 523.5 2590.5 506.25 2590.5 506.25 C 2590.5 506.25 2517 484.5 2476.5 543 Z M 2476.5 543 "/>
<path fill-rule="evenodd" fill="rgb(0%, 19.993591%, 59.959412%)" fill-opacity="1" d="M 2436.75 1408.5 C 2436.75 1408.5 2393.25 1413.75 2388.75 1495.5 C 2388.75 1495.5 2363.25 1554.75 2345.25 1561.5 C 2345.25 1561.5 2361.75 1608.75 2396.25 1598.25 L 2422.5 1565.25 C 2422.5 1565.25 2506.5 1515 2516.25 1479 C 2525.25 1442.25 2525.25 1431 2519.25 1423.5 C 2513.25 1416.75 2477.25 1474.5 2436.75 1408.5 Z M 2436.75 1408.5 "/>
<path fill-rule="evenodd" fill="rgb(100%, 65.039062%, 41.967773%)" fill-opacity="1" d="M 2450.25 1335 C 2450.25 1335 2428.5 1379.25 2438.25 1414.5 C 2438.25 1414.5 2433.75 1476.75 2474.25 1471.5 C 2514.75 1467 2528.25 1446 2527.5 1430.25 C 2526.75 1415.25 2551.5 1409.25 2561.25 1398 C 2571 1386.75 2583.75 1359.75 2582.25 1341 C 2580.75 1322.25 2490.75 1262.25 2450.25 1335 Z M 2450.25 1335 "/>
<path fill-rule="evenodd" fill="rgb(91.014099%, 72.851562%, 0%)" fill-opacity="1" d="M 2286 1128.75 C 2286 1128.75 2208.75 1260 2204.25 1314.75 C 2204.25 1314.75 2263.5 1356 2286.75 1377 C 2310 1398 2332.5 1409.25 2332.5 1409.25 L 2373 1365.75 C 2373 1365.75 2427.75 1250.25 2432.25 1242.75 C 2436.75 1235.25 2444.25 1242.75 2442 1266 C 2439.75 1288.5 2452.5 1326.75 2450.25 1335 C 2447.25 1343.25 2549.25 1257 2577.75 1362.75 C 2577.75 1362.75 2565.75 1396.5 2553.75 1405.5 C 2553.75 1405.5 2585.25 1376.25 2592.75 1347.75 C 2600.25 1319.25 2607 1275.75 2607 1275.75 C 2607 1275.75 2602.5 1251.75 2613.75 1236.75 C 2625 1221.75 2634.75 1209 2620.5 1191 C 2606.25 1173 2386.5 1077.75 2286 1128.75 Z M 2286 1128.75 "/>
<path fill-rule="evenodd" fill="rgb(0%, 0%, 0%)" fill-opacity="1" stroke-width="17.7166" stroke-linecap="butt" stroke-linejoin="miter" stroke="rgb(19.993591%, 17.259216%, 16.868591%)" stroke-opacity="1" stroke-miterlimit="4" d="M 25177.5 16350 C 25177.5 16350 25110 16132.5 24967.5 16027.5 C 24967.5 16027.5 24937.5 16305 24765 16320 C 24765 16320 24645 16972.5 25117.5 17212.5 C 25597.5 17460 26250 17055 26280 16830 C 26310 16597.5 26385 16230 26175 16297.5 C 25965 16365 25665 16110 25665 16110 C 25665 16110 25432.5 16207.5 25425 16410 C 25425 16605 25155 16612.5 25177.5 16350 Z M 25177.5 16350 " transform="matrix(0.1, 0, 0, -0.1, 0, 2175)"/>
<path fill-rule="evenodd" fill="rgb(100%, 65.039062%, 41.967773%)" fill-opacity="1" d="M 2281.5 822 C 2281.5 822 2247 894.75 2258.25 920.25 C 2270.25 945.75 2285.25 955.5 2328 939 C 2328 939 2336.25 934.5 2346 929.25 C 2356.5 922.5 2389.5 918 2398.5 913.5 C 2403.75 910.5 2409 900.75 2413.5 898.5 C 2430 891 2421 887.25 2426.25 878.25 C 2432.25 867.75 2398.5 788.25 2390.25 827.25 C 2388.75 832.5 2391.75 832.5 2391 834 C 2391 834 2373 844.5 2374.5 852 C 2375.25 860.25 2363.25 873 2363.25 873 C 2363.25 873 2337.75 868.5 2336.25 864 C 2334.75 859.5 2334.75 848.25 2352.75 833.25 C 2347.5 830.25 2337.75 825.75 2319.75 819.75 C 2300.25 813.75 2288.25 817.5 2281.5 822 Z M 2281.5 822 "/>
<path fill-rule="evenodd" fill="rgb(0%, 0%, 0%)" fill-opacity="1" d="M 2685 1653 C 2736.75 1653 2779.5 1695 2779.5 1746.75 C 2779.5 1798.5 2736.75 1841.25 2685 1841.25 C 2633.25 1841.25 2591.25 1798.5 2591.25 1746.75 C 2591.25 1695 2633.25 1653 2685 1653 Z M 2685 1653 "/>
<path fill-rule="evenodd" fill="rgb(100%, 0%, 0%)" fill-opacity="1" d="M 1119 1662 C 1119 1662 1081.5 1677 1079.25 1711.5 C 1079.25 1711.5 1031.25 1746 1031.25 1770.75 C 1032 1794.75 1026 1807.5 1026 1807.5 C 1026 1807.5 1092 1842.75 1124.25 1822.5 C 1124.25 1822.5 1134.75 1809 1135.5 1800.75 C 1135.5 1793.25 1158 1784.25 1162.5 1776.75 C 1167 1770 1171.5 1709.25 1170.75 1696.5 C 1169.25 1684.5 1160.25 1647 1119 1662 Z M 1119 1662 "/>
<path fill-rule="evenodd" fill="rgb(76.171875%, 0%, 0%)" fill-opacity="1" d="M 1777.5 1622.25 C 1777.5 1622.25 1799.25 1676.25 1794 1695.75 C 1789.5 1714.5 1772.25 1798.5 1816.5 1792.5 C 1860.75 1786.5 1894.5 1792.5 1893 1752.75 C 1891.5 1713 1878.75 1631.25 1851.75 1611 C 1824.75 1591.5 1803.75 1587 1777.5 1622.25 Z M 1777.5 1622.25 "/>
<path fill-rule="evenodd" fill="rgb(100%, 65.039062%, 41.967773%)" fill-opacity="1" d="M 1700.25 1406.25 C 1706.25 1402.5 1729.5 1436.25 1729.5 1436.25 C 1729.5 1436.25 1722.75 1469.25 1760.25 1533.75 C 1760.25 1533.75 1788.75 1558.5 1777.5 1622.25 C 1777.5 1622.25 1829.25 1600.5 1851.75 1611 C 1851.75 1611 1838.25 1588.5 1837.5 1577.25 C 1837.5 1566 1848.75 1448.25 1809.75 1373.25 C 1770.75 1298.25 1732.5 1241.25 1732.5 1241.25 C 1732.5 1241.25 1587.75 1263.75 1700.25 1406.25 Z M 1700.25 1406.25 "/>
<path fill-rule="evenodd" fill="rgb(100%, 65.039062%, 41.967773%)" fill-opacity="1" d="M 1235.25 1352.25 C 1235.25 1352.25 1119.75 1575 1119 1662 C 1119 1662 1168.5 1671.75 1170.75 1696.5 C 1170.75 1696.5 1217.25 1586.25 1240.5 1563 C 1263.75 1539 1313.25 1435.5 1324.5 1398 C 1335.75 1359.75 1276.5 1355.25 1235.25 1352.25 Z M 1235.25 1352.25 "/>
<path fill-rule="evenodd" fill="rgb(100%, 39.988708%, 0%)" fill-opacity="1" d="M 1339.5 1191.75 C 1404.75 1194 1455.75 1248.75 1453.5 1314 C 1451.25 1379.25 1395.75 1430.25 1330.5 1428 C 1265.25 1425.75 1214.25 1371 1216.5 1305.75 C 1218.75 1240.5 1274.25 1189.5 1339.5 1191.75 Z M 1339.5 1191.75 "/>
<path fill-rule="evenodd" fill="rgb(100%, 65.039062%, 41.967773%)" fill-opacity="1" d="M 1386.75 1014.75 L 1383 999.75 C 1383 999.75 1327.5 1089.75 1305.75 1112.25 C 1305.75 1112.25 1325.25 1142.25 1347 1183.5 C 1347 1183.5 1350 1177.5 1357.5 1178.25 C 1365 1179 1410 1221 1410 1221 C 1410 1221 1425 1263 1386.75 1238.25 C 1349.25 1214.25 1332 1211.25 1344.75 1255.5 C 1357.5 1300.5 1356 1315.5 1347.75 1316.25 C 1339.5 1316.25 1313.25 1239.75 1313.25 1239.75 L 1313.25 1325.25 C 1313.25 1325.25 1296 1338.75 1294.5 1318.5 C 1293 1299 1285.5 1244.25 1285.5 1244.25 C 1285.5 1244.25 1264.5 1276.5 1257.75 1314 C 1257.75 1314 1250.25 1324.5 1246.5 1314 C 1243.5 1304.25 1248.75 1254.75 1257 1243.5 C 1257 1243.5 1247.25 1231.5 1226.25 1275.75 C 1226.25 1275.75 1215.75 1273.5 1219.5 1264.5 C 1224 1255.5 1240.5 1210.5 1252.5 1200.75 C 1263.75 1190.25 1261.5 1166.25 1261.5 1166.25 C 1261.5 1166.25 1219.5 1140 1221.75 1119.75 C 1224 1098.75 1299.75 965.25 1331.25 944.25 C 1331.25 944.25 1350.75 839.25 1419 837 L 1464 849 L 1484.25 918 L 1431.75 1046.25 C 1431.75 1046.25 1398 1053.75 1392 1057.5 C 1386 1061.25 1383 1056 1386.75 1014.75 Z M 1386.75 1014.75 "/>
<path fill-rule="evenodd" fill="rgb(100%, 65.039062%, 41.967773%)" fill-opacity="1" d="M 1689 1040.25 C 1689 1040.25 1748.25 1122.75 1757.25 1156.5 C 1766.25 1190.25 1791 1233 1762.5 1272 C 1762.5 1272 1726.5 1262.25 1726.5 1294.5 L 1737 1298.25 C 1737 1298.25 1735.5 1330.5 1755 1322.25 C 1774.5 1314 1778.25 1310.25 1778.25 1310.25 C 1778.25 1310.25 1751.25 1344.75 1773 1341 C 1794.75 1337.25 1800 1335.75 1800 1335.75 L 1773.75 1351.5 C 1773.75 1351.5 1781.25 1366.5 1784.25 1366.5 C 1788 1367.25 1799.25 1374 1809.75 1373.25 C 1820.25 1372.5 1824 1386 1824 1369.5 C 1824 1353 1829.25 1356.75 1823.25 1345.5 C 1817.25 1335 1815 1346.25 1813.5 1323 C 1811.25 1299.75 1837.5 1249.5 1837.5 1249.5 C 1837.5 1249.5 1828.5 1163.25 1812.75 1118.25 C 1797 1072.5 1776 1043.25 1777.5 1016.25 C 1778.25 988.5 1750.5 900 1692.75 872.25 L 1648.5 921.75 L 1646.25 1014 C 1646.25 1014 1605.75 1050 1689 1040.25 Z M 1689 1040.25 "/>
<path fill-rule="evenodd" fill="rgb(0%, 0%, 0%)" fill-opacity="1" stroke-width="17.7166" stroke-linecap="butt" stroke-linejoin="miter" stroke="rgb(19.993591%, 17.259216%, 16.868591%)" stroke-opacity="1" stroke-miterlimit="4" d="M 15180 13500 C 15180 13500 14415 13620 14190 13380 C 14190 13380 14692.5 13410 14512.5 12382.5 C 14332.5 11347.5 13875 11205 13920 11685 C 13920 11685 13635 11392.5 13920 11047.5 C 13920 11047.5 13620 10695 13620 10470 C 13612.5 10245 13380 10282.5 13440 10005 C 13492.5 9720 13905 9690 14070 9525 C 14235 9360 14617.5 8925 14340 8025 C 14340 8025 14077.5 7665 13882.5 7620 C 13882.5 7620 14190 7305 14475 7582.5 C 14752.5 7852.5 15510 8992.5 15510 8992.5 C 15510 8992.5 16027.5 8310 16110 7980 C 16192.5 7650 16650 7200 17137.5 7612.5 C 17137.5 7612.5 16710 8235 16717.5 8505 C 16732.5 8767.5 16620 9067.5 17625 9030 C 17625 9030 17587.5 9367.5 17490 9930 C 17392.5 10492.5 17227.5 10462.5 17227.5 10462.5 C 17227.5 10462.5 17385 10575 17332.5 10770 C 17280 10957.5 17092.5 10920 17092.5 10980 C 17085 11047.5 16942.5 11175 16927.5 11265 C 16912.5 11362.5 16620 11602.5 16837.5 12315 C 17055 13020 17032.5 13065 17032.5 13065 C 17032.5 13065 16687.5 13357.5 16357.5 13305 C 16027.5 13252.5 15847.5 10732.5 15180 13500 Z M 15180 13500 " transform="matrix(0.1, 0, 0, -0.1, 0, 2175)"/>
<path fill-rule="evenodd" fill="rgb(100%, 59.568787%, 32.93457%)" fill-opacity="1" d="M 1518 825 C 1518 825 1501.5 894 1520.25 933 C 1520.25 933 1532.25 1006.5 1545.75 1015.5 C 1558.5 1025.25 1586.25 1023 1586.25 1023 C 1586.25 1023 1624.5 958.5 1627.5 930.75 C 1631.25 903 1623.75 885.75 1623.75 885.75 C 1623.75 885.75 1554 813 1518 825 Z M 1518 825 "/>
<path fill-rule="evenodd" fill="rgb(100%, 65.039062%, 41.967773%)" fill-opacity="1" d="M 1488.75 772.5 C 1488.75 772.5 1464 825 1518 825 C 1518 825 1526.25 867.75 1545.75 888.75 C 1564.5 909 1585.5 930.75 1617 911.25 C 1617 911.25 1644.75 885.75 1654.5 855 C 1664.25 823.5 1682.25 800.25 1675.5 783.75 C 1668 767.25 1568.25 692.25 1488.75 772.5 Z M 1488.75 772.5 "/>
<path fill-rule="evenodd" fill="rgb(0%, 0%, 0%)" fill-opacity="1" stroke-width="17.7166" stroke-linecap="butt" stroke-linejoin="miter" stroke="rgb(19.993591%, 17.259216%, 16.868591%)" stroke-opacity="1" stroke-miterlimit="4" d="M 15772.5 14235 C 15772.5 14235 15360 13710 15135 13672.5 C 15135 13672.5 15067.5 14145 14887.5 14025 C 14887.5 14025 14632.5 14850 15277.5 15105 C 15930 15352.5 16762.5 15172.5 16875 14587.5 C 16987.5 14002.5 16927.5 13905 16770 13792.5 C 16770 13792.5 16185 13605 15945 14085 L 15832.5 14280 Z M 15772.5 14235 " transform="matrix(0.1, 0, 0, -0.1, 0, 2175)"/>
<path fill-rule="evenodd" fill="rgb(100%, 100%, 100%)" fill-opacity="1" d="M 1436.25 1080.75 L 1425.75 1128.75 C 1425.75 1128.75 1443 1131 1443 1130.25 C 1443 1128.75 1446 1116 1446 1116 C 1446 1116 1455 1131 1456.5 1131 C 1457.25 1131 1463.25 1136.25 1466.25 1134.75 C 1469.25 1133.25 1482.75 1137 1483.5 1134.75 C 1485 1133.25 1486.5 1128.75 1486.5 1128.75 L 1497 1136.25 L 1503 1139.25 L 1509.75 1134 C 1509.75 1134 1518 1140 1521.75 1139.25 C 1524.75 1138.5 1527.75 1138.5 1527.75 1138.5 L 1533 1134.75 L 1537.5 1146 L 1561.5 1149 C 1561.5 1149 1563 1164 1575 1160.25 C 1587 1156.5 1591.5 1165.5 1600.5 1164 C 1608.75 1162.5 1653 1146.75 1653 1146.75 L 1669.5 1114.5 L 1645.5 1115.25 C 1645.5 1115.25 1586.25 1110 1583.25 1098 L 1555.5 1092 L 1548 1079.25 L 1519.5 1076.25 L 1513.5 1085.25 L 1509 1078.5 L 1471.5 1125.75 C 1471.5 1125.75 1460.25 1124.25 1459.5 1122 C 1458 1119.75 1457.25 1113 1457.25 1113 C 1457.25 1113 1473.75 1106.25 1473 1101.75 C 1472.25 1097.25 1481.25 1088.25 1470 1085.25 C 1458 1082.25 1447.5 1075.5 1436.25 1080.75 Z M 1436.25 1080.75 "/>
<path fill-rule="evenodd" fill="rgb(0%, 0%, 0%)" fill-opacity="1" stroke-width="17.7166" stroke-linecap="butt" stroke-linejoin="miter" stroke="rgb(19.993591%, 17.259216%, 16.868591%)" stroke-opacity="1" stroke-miterlimit="4" d="M 32550 4620 C 32550 4620 32235 4057.5 32257.5 3877.5 C 32272.5 3705 32467.5 3577.5 32467.5 3577.5 C 32467.5 3577.5 32505 3517.5 32662.5 3690 C 32820 3870 33090 4342.5 33247.5 4222.5 C 33397.5 4110 33585 4282.5 33585 4282.5 L 33577.5 4852.5 C 33577.5 4852.5 32827.5 4845 32550 4620 Z M 32550 4620 " transform="matrix(0.1, 0, 0, -0.1, 0, 2175)"/>
<path fill-rule="evenodd" fill="rgb(100%, 65.039062%, 41.967773%)" fill-opacity="1" d="M 3114.75 795.75 C 3114.75 795.75 3107.25 795.75 3093 800.25 C 3093 800.25 3103.5 794.25 3108 783 C 3112.5 772.5 3111 709.5 3111 709.5 C 3111 709.5 3141.75 651.75 3137.25 639 C 3137.25 639 3161.25 618 3174 609 C 3186.75 599.25 3180 606 3180 606 C 3180 606 3190.5 586.5 3188.25 579.75 C 3186.75 573.75 3188.25 584.25 3188.25 584.25 C 3188.25 584.25 3194.25 536.25 3198 523.5 C 3202.5 510.75 3208.5 477.75 3208.5 477.75 C 3208.5 477.75 3211.5 453.75 3195.75 468 C 3180 481.5 3176.25 489.75 3174.75 499.5 C 3174 508.5 3168 503.25 3168 503.25 C 3168 503.25 3163.5 486 3159 469.5 C 3155.25 452.25 3123.75 517.5 3126 535.5 C 3128.25 552.75 3103.5 611.25 3103.5 611.25 C 3103.5 611.25 3043.5 715.5 3034.5 731.25 C 3026.25 747 3017.25 813 3008.25 816 C 3000 819.75 2989.5 887.25 3129.75 885 C 3270 882 3178.5 839.25 3114.75 795.75 Z M 3114.75 795.75 "/>
<path fill-rule="evenodd" fill="rgb(100%, 65.039062%, 41.967773%)" fill-opacity="1" d="M 3640.5 650.25 C 3640.5 650.25 3745.5 581.25 3753.75 572.25 C 3762.75 564 3813 518.25 3831.75 508.5 C 3851.25 498 3938.25 446.25 3945.75 435 C 3952.5 424.5 3957.75 336.75 4044 321.75 C 4044 321.75 4017.75 355.5 4016.25 364.5 L 4056.75 342.75 L 4062 347.25 C 4062 347.25 4034.25 373.5 4020.75 387 C 4007.25 400.5 3993 453.75 3993 453.75 L 3974.25 462.75 C 3879 606 3814.5 601.5 3762 656.25 C 3731.25 687.75 3673.5 720.75 3675 723 C 3676.5 725.25 3600.75 683.25 3640.5 650.25 Z M 3640.5 650.25 "/>
<path fill-rule="evenodd" fill="rgb(0%, 0%, 0%)" fill-opacity="1" stroke-width="17.7166" stroke-linecap="butt" stroke-linejoin="miter" stroke="rgb(19.993591%, 17.259216%, 16.868591%)" stroke-opacity="1" stroke-miterlimit="4" d="M 31387.5 4590 C 31387.5 4590 31402.5 4875 31185 4942.5 C 30975 5010 30532.5 4822.5 30450 4192.5 C 30450 4192.5 29940 3922.5 29947.5 3540 C 29962.5 3157.5 30082.5 2610 30420 2775 C 30765 2940 30652.5 3127.5 31050 3427.5 C 31447.5 3735 31552.5 4042.5 31552.5 4042.5 C 31552.5 4042.5 31117.5 4110 31387.5 4590 Z M 31387.5 4590 " transform="matrix(0.1, 0, 0, -0.1, 0, 2175)"/>
<path fill-rule="evenodd" fill="rgb(100%, 65.039062%, 41.967773%)" fill-opacity="1" d="M 3354.75 1529.25 C 3354.75 1529.25 3323.25 1599.75 3324.75 1610.25 C 3324.75 1610.25 3245.25 1602.75 3189.75 1661.25 C 3134.25 1719 3112.5 1722 3112.5 1722 C 3112.5 1722 3090.75 1810.5 3141.75 1787.25 C 3192.75 1764 3198 1726.5 3289.5 1717.5 C 3381.75 1707.75 3406.5 1678.5 3432.75 1640.25 C 3459.75 1602 3483.75 1557 3483.75 1557 C 3483.75 1557 3404.25 1484.25 3354.75 1529.25 Z M 3354.75 1529.25 "/>
<path fill-rule="evenodd" fill="rgb(100%, 65.039062%, 41.967773%)" fill-opacity="1" d="M 3525 1482 C 3525 1482 3512.25 1565.25 3523.5 1591.5 C 3523.5 1591.5 3489.75 1580.25 3449.25 1585.5 C 3408.75 1591.5 3319.5 1695 3319.5 1695 C 3319.5 1695 3320.25 1725.75 3357.75 1720.5 C 3395.25 1715.25 3406.5 1686.75 3499.5 1678.5 C 3591.75 1669.5 3602.25 1668.75 3620.25 1619.25 C 3639 1570.5 3655.5 1554.75 3653.25 1534.5 C 3651.75 1514.25 3549 1433.25 3549 1433.25 C 3549 1433.25 3519.75 1443 3525 1482 Z M 3525 1482 "/>
<path fill-rule="evenodd" fill="rgb(0%, 0%, 0%)" fill-opacity="1" stroke-width="17.7166" stroke-linecap="butt" stroke-linejoin="miter" stroke="rgb(19.993591%, 17.259216%, 16.868591%)" stroke-opacity="1" stroke-miterlimit="4" d="M 34215 10065 L 33915 9735 L 34132.5 9225 C 34132.5 9225 33637.5 6795 33480 6532.5 C 33480 6532.5 34087.5 5752.5 35152.5 5947.5 C 35152.5 5947.5 35107.5 6697.5 35400 6960 C 35400 6960 35602.5 6412.5 35842.5 6255 C 36082.5 6090 36502.5 6202.5 36502.5 6202.5 C 36502.5 6202.5 37012.5 7530 37012.5 8160 C 37012.5 8782.5 37012.5 8865 37035 8962.5 C 37065 9060 36832.5 9577.5 36772.5 9697.5 C 36712.5 9817.5 35542.5 9832.5 34215 10065 Z M 34215 10065 " transform="matrix(0.1, 0, 0, -0.1, 0, 2175)"/>
<path fill-rule="evenodd" fill="rgb(100%, 65.039062%, 41.967773%)" fill-opacity="1" d="M 3429.75 1102.5 C 3429.75 1102.5 3411.75 1150.5 3423.75 1172.25 C 3435.75 1194 3589.5 1236 3685.5 1223.25 C 3685.5 1223.25 3692.25 1201.5 3679.5 1173 C 3666.75 1144.5 3660.75 1125.75 3678 1089.75 L 3490.5 1092 C 3490.5 1092 3442.5 1075.5 3429.75 1102.5 Z M 3429.75 1102.5 "/>
<path fill-rule="evenodd" fill="rgb(100%, 0%, 0%)" fill-opacity="1" d="M 3350.25 765 L 3304.5 768.75 C 3304.5 768.75 3236.25 786 3234.75 806.25 C 3234.75 806.25 3200.25 803.25 3197.25 795.75 L 3114 795.75 C 3114 795.75 3126.75 893.25 3117.75 915.75 C 3117.75 915.75 3284.25 917.25 3291 927.75 C 3297 938.25 3381.75 1089.75 3381.75 1128.75 C 3381.75 1128.75 3411.75 1142.25 3430.5 1114.5 C 3430.5 1114.5 3516 1152.75 3585 1119 C 3653.25 1086 3669.75 1096.5 3667.5 1129.5 L 3693.75 1098 C 3693.75 1098 3685.5 1018.5 3656.25 984 C 3656.25 984 3669 928.5 3633.75 888 C 3633.75 888 3607.5 820.5 3629.25 747.75 C 3629.25 747.75 3672.75 732.75 3685.5 717.75 C 3685.5 717.75 3668.25 690.75 3667.5 675 C 3667.5 658.5 3636 622.5 3636 622.5 C 3636 622.5 3600.75 657.75 3543.75 679.5 C 3487.5 701.25 3438.75 751.5 3438.75 751.5 C 3438.75 751.5 3387 722.25 3350.25 765 Z M 3350.25 765 "/>
<path fill-rule="evenodd" fill="rgb(100%, 65.039062%, 41.967773%)" fill-opacity="1" d="M 3288 726 C 3288 726 3330.75 738 3336.75 746.25 C 3343.5 754.5 3350.25 765 3350.25 765 C 3350.25 765 3405 770.25 3414.75 777.75 C 3414.75 777.75 3453 782.25 3460.5 749.25 C 3460.5 749.25 3444.75 745.5 3445.5 722.25 C 3446.25 698.25 3452.25 698.25 3452.25 698.25 C 3452.25 698.25 3438.75 657 3426 648 L 3420.75 630.75 L 3398.25 617.25 C 3398.25 617.25 3400.5 604.5 3375 596.25 C 3350.25 588.75 3318 595.5 3318 595.5 C 3318 595.5 3288.75 609.75 3292.5 627 C 3295.5 643.5 3266.25 694.5 3288 726 Z M 3288 726 "/>
<path fill-rule="evenodd" fill="rgb(0%, 0%, 0%)" fill-opacity="1" d="M 3375 596.25 C 3375 596.25 3292.5 600.75 3305.25 636 L 3321 645 L 3319.5 678.75 C 3319.5 678.75 3274.5 690.75 3288 726 C 3288 726 3263.25 715.5 3263.25 685.5 C 3263.25 655.5 3292.5 529.5 3375 596.25 Z M 3375 596.25 "/>
<path fill-rule="evenodd" fill="rgb(0%, 0%, 0%)" fill-opacity="1" d="M 3765 84 C 3819 84 3862.5 127.5 3862.5 182.25 C 3862.5 236.25 3819 279.75 3765 279.75 C 3710.25 279.75 3666.75 236.25 3666.75 182.25 C 3666.75 127.5 3710.25 84 3765 84 Z M 3765 84 "/>
</svg>
